<?xml version="1.0" standalone="no"?>
<!DOCTYPE svg PUBLIC "-//W3C//DTD SVG 20010904//EN"
 "http://www.w3.org/TR/2001/REC-SVG-20010904/DTD/svg10.dtd">
<svg version="1.0" xmlns="http://www.w3.org/2000/svg"
 width="1280.000000pt" height="288.000000pt" viewBox="0 0 1280.000000 288.000000"
 preserveAspectRatio="xMidYMid meet">

<g transform="translate(0.000000,288.000000) scale(0.100000,-0.100000)"
fill="#000000" stroke="none">
<path d="M1675 2667 c70 -105 98 -222 75 -315 -9 -40 -19 -55 -48 -75 -62 -41
-94 -79 -129 -156 -47 -99 -58 -148 -93 -389 -45 -318 -74 -389 -162 -399 -42
-5 -48 -3 -64 22 -26 39 -28 110 -10 291 9 89 16 204 16 256 0 102 14 170 60
290 21 55 30 95 30 138 0 62 -28 185 -59 255 l-17 40 -28 -90 c-16 -50 -39
-110 -53 -135 -63 -112 -186 -233 -250 -245 -46 -8 -125 -47 -165 -80 -41 -35
-93 -32 -230 11 -62 19 -145 38 -184 41 -68 5 -204 -12 -204 -26 0 -3 28 -19
62 -34 164 -75 269 -217 270 -365 1 -62 -15 -84 -105 -143 -93 -61 -175 -84
-289 -83 l-98 1 0 -83 0 -82 65 -7 c59 -7 71 -12 114 -51 61 -55 124 -151 151
-232 11 -35 26 -110 32 -167 14 -120 17 -121 72 -12 55 110 66 157 76 337 10
196 31 267 101 352 86 102 102 128 186 288 70 132 108 165 205 176 97 11 110
-32 84 -280 -9 -89 -16 -190 -16 -226 0 -64 -1 -67 -47 -119 -80 -91 -236
-174 -347 -183 -37 -3 -33 -13 17 -36 73 -34 159 -55 224 -55 53 0 76 7 165
51 103 49 103 50 148 36 62 -19 100 -17 173 7 71 24 142 22 201 -6 55 -26 130
-103 162 -165 l28 -55 8 35 c9 40 2 114 -17 182 -14 48 -55 116 -107 176 -15
18 -39 54 -52 81 -21 40 -23 54 -16 87 5 21 18 111 29 199 30 235 46 289 108
377 46 64 97 83 195 74 143 -15 235 -70 258 -157 16 -59 8 -176 -20 -269 -21
-71 -150 -433 -170 -475 -22 -47 -73 -232 -85 -308 -16 -101 -12 -227 10 -287
8 -24 30 -66 47 -92 26 -42 30 -54 24 -91 -15 -92 -91 -199 -199 -281 -63 -47
-47 -54 82 -38 97 12 191 48 236 89 27 25 105 78 130 88 11 4 61 8 110 10 94
2 157 21 211 64 26 20 34 20 92 -6 48 -21 136 -113 174 -183 18 -33 37 -58 42
-57 18 6 27 62 22 138 -4 66 -13 92 -59 190 -69 145 -74 174 -39 235 15 25 35
60 45 77 28 48 152 209 184 238 110 101 286 169 438 169 123 -1 204 -34 299
-122 l66 -61 0 -66 c-1 -127 -41 -226 -146 -359 -36 -46 -64 -85 -62 -88 9 -8
145 37 206 68 70 36 96 61 174 165 79 106 125 142 203 158 94 20 214 72 343
148 62 37 120 67 130 67 31 0 96 -56 129 -112 39 -65 63 -152 63 -233 l1 -60
33 39 c19 22 45 73 60 116 26 72 27 84 24 241 -4 208 1 220 111 285 277 163
559 265 824 299 165 21 194 20 208 -7 24 -45 37 -119 33 -197 -1 -45 -1 -81 2
-81 27 0 154 127 154 154 0 18 57 88 85 106 42 26 80 25 250 -6 188 -34 210
-39 355 -77 124 -32 125 -32 137 -67 7 -19 12 -56 12 -81 1 -47 -23 -145 -41
-167 -22 -26 2 -23 60 8 70 37 120 83 138 126 7 18 28 48 46 67 33 35 33 35
88 25 87 -16 452 -13 543 4 l79 15 38 -28 c47 -34 90 -105 97 -159 3 -22 9
-43 14 -46 16 -10 50 78 56 146 3 39 15 86 27 111 20 40 28 45 121 82 55 21
186 77 290 122 349 154 553 224 779 269 116 24 174 31 317 41 l67 4 13 -32
c20 -47 18 -164 -4 -206 -9 -19 -15 -37 -12 -39 12 -12 101 79 131 134 22 39
49 70 80 92 54 37 51 37 259 -4 193 -38 246 -51 618 -153 42 -11 112 -30 154
-42 42 -11 80 -22 85 -25 18 -11 7 -72 -22 -117 -17 -27 -24 -47 -17 -47 30 1
96 41 118 71 47 68 39 67 284 30 228 -34 386 -44 595 -37 107 3 224 9 260 12
59 5 67 3 85 -16 16 -18 20 -36 19 -91 l0 -69 22 21 c27 25 49 70 64 131 13
50 28 61 105 73 70 11 75 14 75 49 l0 32 -132 -22 c-240 -39 -357 -49 -571
-48 -238 1 -230 -2 -277 95 -15 32 -39 69 -53 85 l-26 28 1 -60 c0 -38 -5 -72
-16 -93 -16 -29 -21 -32 -49 -27 -18 3 -50 8 -72 11 -155 22 -457 91 -676 156
-68 20 -79 26 -93 56 -9 19 -16 40 -16 48 0 22 -42 145 -50 145 -3 0 -12 -22
-19 -48 -6 -27 -23 -65 -37 -85 -28 -42 -44 -45 -131 -22 -476 126 -819 135
-1232 34 -69 -17 -75 -17 -96 -1 -12 9 -35 40 -49 69 -24 45 -98 114 -110 102
-3 -2 7 -38 22 -80 22 -64 25 -83 17 -115 -10 -37 -13 -39 -100 -72 -93 -34
-177 -69 -375 -154 -145 -63 -347 -140 -424 -162 -89 -26 -128 -10 -192 81
-32 45 -103 108 -111 99 -3 -2 0 -21 6 -43 15 -54 14 -101 -6 -155 l-16 -46
-106 -8 c-128 -8 -305 6 -491 41 -142 26 -226 50 -236 66 -3 5 -12 52 -20 104
-13 87 -61 215 -85 231 -5 3 -9 -24 -9 -59 0 -79 -22 -156 -57 -198 -25 -30
-29 -31 -82 -26 -31 3 -99 14 -152 26 -278 59 -675 66 -901 16 -129 -29 -208
9 -315 153 -64 85 -159 148 -252 167 l-33 7 39 -53 c58 -80 91 -140 109 -200
17 -54 22 -187 10 -208 -4 -6 -46 -29 -94 -52 -124 -58 -343 -185 -554 -322
-420 -270 -564 -311 -710 -203 -24 17 -28 27 -28 65 1 66 16 122 54 204 43 91
60 173 51 244 -8 62 -37 153 -59 184 -13 20 -15 18 -25 -38 -32 -166 -127
-313 -252 -394 l-46 -29 -100 17 c-95 16 -106 16 -209 -1 -170 -28 -185 -29
-208 -18 -11 6 -37 18 -56 27 -48 22 -77 39 -103 62 -65 58 -140 84 -262 90
l-80 3 30 -22 c102 -77 184 -185 219 -290 l20 -56 -56 -69 c-88 -109 -189
-262 -247 -376 -21 -40 -117 -154 -145 -172 -14 -9 -49 -19 -79 -22 -121 -12
-288 92 -314 196 -9 35 28 63 124 95 43 14 101 41 128 60 55 36 165 141 165
155 0 5 -22 1 -50 -10 -120 -45 -233 -34 -302 32 -35 33 -40 43 -35 69 6 26
153 431 177 485 13 30 30 87 51 173 21 85 22 87 142 159 42 26 98 68 124 94
46 47 115 157 107 171 -2 3 -27 -9 -54 -27 -73 -49 -150 -75 -223 -75 -84 0
-103 7 -117 40 -28 68 -109 129 -238 180 -46 18 -107 91 -148 178 -43 91 -106
155 -196 200 -96 46 -106 43 -63 -21z"/>
</g>
</svg>
